# xmcd
#
# Track frame offsets:
#	150
#	13117
#	34288
#	53669
#	75932
#	99466
#	119498
#	138047
#	160234
#	181668
#	201086
#	225552
#	234843
#
# Disc length: 3435 seconds
#
# Revision: 0
# Processed by: cddbd v1.5.1PL0 Copyright (c) Steve Scherf et al.
# Submitted via: dBpowerAMP V4.0
#
DISCID=930d690d
DTITLE=Jamie Foxx - Peep This
DYEAR=1998
DGENRE=R and B
TTITLE0=Peep This
TTITLE1=Experiment
TTITLE2=Miss You
TTITLE3=Dog House
TTITLE4=Infatuation
TTITLE5=Baby Don't Cry
TTITLE6=Precious
TTITLE7=Your Love
TTITLE8=Summertime
TTITLE9=If You Love Me
TTITLE10=Don't Let The Sun Go Down
TTITLE11=Peep This Out
TTITLE12=Light A Candle
EXTD=
EXTT0=
EXTT1=
EXTT2=
EXTT3=
EXTT4=
EXTT5=
EXTT6=
EXTT7=
EXTT8=
EXTT9=
EXTT10=
EXTT11=
EXTT12=
PLAYORDER=
